# xmcd
#
# Track frame offsets: 
#        150
#        17822
#        36591
#        55687
#        86342
#        104373
#        126511
#        156541
#        179042
#        210913
#        233340
#        251853
#        271503
#
# Disc length: 3922 seconds
#
# Revision: 0
# Processed by: cddbd v1.4PL0 Copyright (c) Steve Scherf et al.
# Submitted via: ExactAudioCopy v0.90a11
#
DISCID=af0f500d
DTITLE=Gary Moore - Ballads and Blues 1982 - 1994
DYEAR=1900
DGENRE=
TTITLE0=Always gonna love you
TTITLE1=Still got the Blues
TTITLE2=Empty rooms
TTITLE3=Parisienne Walkways
TTITLE4=One Day
TTITLE5=Separate Ways
TTITLE6=Story of the Blues
TTITLE7=Crying in the shadows
TTITLE8=With love (Remember)
TTITLE9=Midnight Blues
TTITLE10=Falling in love with you
TTITLE11=Jumpin' at shadows
TTITLE12=Blues for Narada
EXTD=
EXTT0=
EXTT1=
EXTT2=
EXTT3=
EXTT4=
EXTT5=
EXTT6=
EXTT7=
EXTT8=
EXTT9=
EXTT10=
EXTT11=
EXTT12=
PLAYORDER=
